<?xml version="1.0" encoding="UTF-8" standalone="no"?>
<!-- Created with Inkscape (http://www.inkscape.org/) -->

<svg
   width="203.91765mm"
   height="108.79209mm"
   viewBox="0 0 203.91765 108.79209"
   version="1.1"
   id="svg1"
   xml:space="preserve"
   xmlns="http://www.w3.org/2000/svg"
   xmlns:svg="http://www.w3.org/2000/svg"><defs
     id="defs1" /><g
     id="layer1"
     transform="translate(1.8172317,-8.3368709)"><path
       id="path255"
       d="m 44.004464,40.546259 c -0.498487,-3.942299 -0.424833,-8.009886 0.743717,-11.808093 0.807349,0.972821 1.614687,1.944746 2.421941,2.916674 0.08846,-1.276213 -1.023032,-2.344794 -1.170693,-3.616532 -0.115992,-0.997878 0.376406,-1.95817 0.88224,-2.826279 1.079598,-1.854357 2.291463,-3.631746 3.623421,-5.314269 0.681428,0.787566 1.36294,1.575128 2.044359,2.362691 -0.04309,-1.133912 -0.25542,-2.260665 -0.62781,-3.332826 4.563568,-4.634993 10.818173,-7.12119 16.877939,-9.4820925 -1.450728,2.7698985 -0.626467,6.2548695 -1.825719,9.1429025 -0.924485,-0.34277 -1.922363,-0.488648 -2.90593,-0.424211 0.630057,0.851107 1.670887,1.381816 2.729627,1.392558 -1.439092,1.987702 -2.878183,3.975408 -4.317286,5.963112 -0.176302,0.244324 -0.36424,0.497598 -0.634522,0.630052 -0.307863,0.15035 -0.668534,0.119028 -1.008618,0.08502 -1.508906,-0.153037 -3.017894,-0.306076 -4.526976,-0.45822 1.698904,0.822467 3.58816,1.250259 5.476532,1.238624 -0.533404,0.814413 -1.066796,1.62972 -1.600189,2.444133 -0.129771,0.197787 -0.264017,0.400048 -0.45464,0.539661 -0.315918,0.230005 -0.733872,0.250588 -1.124068,0.262223 -1.599742,0.04833 -3.199119,0.09665 -4.79859,0.144983 1.100256,0.402733 2.24133,0.69449 3.400128,0.869006 -1.278723,0.328452 -2.557436,0.657794 -3.836065,0.986246 1.224396,0.652426 2.624824,0.970132 4.010932,0.911069 -0.60024,4.593825 -2.771414,8.814448 -4.087635,13.257026 -0.718646,2.425343 -1.180092,4.916906 -1.540763,7.418319 -0.148743,1.03189 0.08722,4.555347 -1.317918,4.599193 -1.154489,0.03663 -2.430257,-2.361797 -2.820724,-3.190522 -0.955821,-2.027082 -1.381372,-4.41036 -1.944749,-6.570795 -0.699142,-2.681298 -1.319978,-5.388553 -1.667941,-8.139653"
       style="fill:#566e3e;fill-opacity:1;fill-rule:nonzero;stroke:none;stroke-width:0.00894962" /><path
       id="path256"
       d="M 45.936058,45.289541 C 44.78774,39.859824 44.379903,34.200104 42.164882,29.110469 39.342628,22.625596 33.80847,17.596819 31.088324,11.068988 c 0.279856,2.161325 -0.486674,4.301173 -1.095157,6.394483 -0.608389,2.092415 -1.054172,4.403199 -0.179528,6.399852 2.004352,0.429582 4.176327,0.01165 5.878363,-1.130332 -1.484832,1.55723 -3.570706,2.52647 -5.718526,2.657132 1.808807,2.906828 3.419289,5.936265 4.816491,9.061461 1.014082,-0.35351 2.028071,-0.70791 3.042153,-1.061421 -0.625405,0.831421 -1.411626,1.54291 -2.302464,2.081678 0.849041,1.477573 1.698009,2.955153 2.546967,4.432733 0.08649,0.151246 0.187313,0.313233 0.352698,0.365139 0.166468,0.05283 0.343218,-0.02329 0.500818,-0.09844 0.555685,-0.264011 1.111361,-0.527128 1.667036,-0.791144 -0.122694,0.554875 -0.702181,0.85648 -1.115919,1.246679 -0.413832,0.389309 -0.610991,1.200138 -0.0946,1.438202 1.141792,-0.758928 2.283668,-1.516957 3.425543,-2.274991 -0.403809,1.505322 -1.35783,2.855819 -2.641112,3.740036 -0.379102,0.260432 -0.814415,0.517286 -0.962087,0.95313 -0.146589,0.433165 0.03986,0.901223 0.229381,1.316486 2.036386,4.463163 4.7866,8.553129 7.711232,12.474838 0.666754,0.894063 2.327879,4.128443 2.764628,1.677152 0.35529,-1.993966 -1.107697,-4.498959 -1.703202,-6.347949 -0.881179,-2.735882 -1.680108,-5.500413 -2.274988,-8.314166"
       style="fill:#668944;fill-opacity:1;fill-rule:nonzero;stroke:none;stroke-width:0.00894962" /><path
       id="path257"
       d="m 51.02131,40.946303 c 0.233138,1.046209 0.81351,2.012764 1.628019,2.70994 -0.71901,-0.997881 -0.603477,-2.412813 -0.03809,-3.505556 0.565437,-1.091853 1.505949,-1.934903 2.425875,-2.751105 2.73607,-2.428921 5.530671,-4.895429 8.876025,-6.375687 0.394683,1.000564 0.789354,2.001128 1.184037,3.000797 -0.44748,-1.663729 -0.271177,-4.038057 -0.271177,-4.038057 0,0 5.695525,-1.279792 7.41564,-1.373763 4.231362,-0.230004 8.476149,-0.194205 12.703047,0.107396 -1.388085,2.269616 -2.777065,4.53834 -4.16514,6.807057 -1.380029,-0.554875 -2.760954,-1.108855 -4.141878,-1.66373 0.418848,1.028312 2.44951,1.602872 2.868348,2.631185 -2.92204,2.62849 -7.568671,5.572909 -12.559861,1.4203 0.766093,1.335278 1.925953,2.44055 3.296137,3.141304 -3.282711,0.784882 -6.287981,2.688459 -8.399186,5.322322 -1.337963,-0.707016 -2.786005,-1.205512 -4.275761,-1.471312 0.944717,0.784876 1.889798,1.570653 2.834879,2.355534 -1.107073,-0.920021 -8.755216,19.234461 -9.396898,20.453394 -2.083377,-1.955479 -1.800741,-12.443517 -1.781238,-15.184769 0.02789,-3.921712 0.626384,-7.841636 1.797255,-11.58525"
       style="fill:#668944;fill-opacity:1;fill-rule:nonzero;stroke:none;stroke-width:0.00894962" /><path
       id="path258"
       d="M 47.078474,55.424057 C 45.782662,53.263634 44.378029,51.161368 42.7569,49.233624 36.682002,42.007725 27.720063,37.52577 18.418393,35.914846 c -2.536309,-0.439427 -5.19935,-0.711495 -7.380015,-2.078994 3.042154,2.685776 5.402868,6.137629 6.802765,9.946579 1.720739,-0.954926 3.266695,-2.223078 4.539142,-3.723927 -0.657793,1.536647 -1.623897,2.941729 -2.824315,4.106075 0.660219,2.087939 2.485573,3.592366 4.382531,4.685109 1.897041,1.093642 3.968251,1.913418 5.682547,3.275547 0.108644,0.08596 0.22758,0.178998 0.366302,0.178998 0.17497,10e-4 0.311713,-0.144092 0.424301,-0.278337 1.864466,-2.217705 3.465186,-4.657366 4.757699,-7.250958 -0.711142,2.906832 -1.941169,5.685675 -3.614928,8.166502 2.271679,-0.264912 4.020965,1.815873 5.875138,3.153836 0.422157,0.305188 0.899433,0.587095 1.420119,0.583515 0.520602,-0.0031 1.06921,-0.400042 1.057315,-0.920915 0.349565,0.629152 -0.327378,1.438197 -0.0664,2.108521 0.138981,0.357091 0.506365,0.566509 0.859521,0.714181 1.414832,0.595151 2.991667,0.677484 4.453759,1.144654 2.517347,0.80457 4.32811,2.692931 5.463991,5.019821 -0.09273,-3.308657 -1.878151,-6.551091 -3.53938,-9.320996"
       style="fill:#93ad3f;fill-opacity:1;fill-rule:nonzero;stroke:none;stroke-width:0.00894962" /><path
       id="path259"
       d="m 50.815555,65.175527 c 0.814415,-5.015346 1.791176,-10.367196 5.326976,-14.016844 1.296167,-1.337962 2.87604,-2.370748 4.519191,-3.247808 8.102959,-4.322652 17.950188,-4.912431 26.766433,-2.337631 4.906165,1.432829 9.640501,3.886809 12.982275,7.753928 2.06557,2.390427 3.59326,5.300843 6.11883,7.19905 -1.28963,-0.628267 -2.80927,-0.581725 -4.30564,-0.534298 -1.83198,0.05724 -3.629955,0.11546 -4.928542,-1.068576 -0.291754,-0.265807 -0.545028,-0.604101 -0.588881,-0.996983 -0.03491,-0.311443 0.06622,-0.621107 0.157511,-0.92181 0.515496,-1.695948 0.766086,-3.472439 0.738341,-5.244456 -1.080215,2.129107 -2.009182,4.335177 -2.778847,6.595844 -0.675693,-0.843941 -1.925953,-0.843046 -3.004378,-0.917334 -1.753225,-0.120821 -3.478705,-0.639893 -5.006406,-1.508 -0.217474,-0.12261 -0.436738,-0.258646 -0.579924,-0.462695 -0.219275,-0.310548 -0.22375,-0.718656 -0.22553,-1.099018 -0.01072,-2.131791 -0.200479,-4.261793 -0.565614,-6.362258 -0.02685,2.630288 -0.05277,5.259671 -0.07878,7.889959 -2.500507,-0.07785 -5.001025,-0.155726 -7.501543,-0.23269 -0.02956,-1.062321 -0.05995,-2.124631 -0.0895,-3.186952 -0.391102,0.962982 -0.537878,2.023502 -0.424219,3.056287 -0.383931,0.08857 -0.767873,0.176313 -1.152699,0.264911 -0.01884,-2.842392 -1.04621,-5.667779 -2.858503,-7.858641 1.063216,2.691138 1.724589,5.540691 1.955489,8.425151 -1.039945,-0.107395 -2.105846,-0.02685 -3.166366,0.0537 -1.73175,0.132456 -3.448284,0.264017 -5.011776,-0.420628 -2.175639,-0.952241 -3.419632,-3.215583 -4.506119,-5.327694 0.329344,1.578708 0.906594,3.104618 1.704003,4.505224 -1.225198,0.882428 -2.774369,0.698965 -4.340547,0.514607 -1.412251,-0.165572 -2.837917,-0.331145 -4.051844,0.285487 -1.47328,0.747298 -2.183964,2.425345 -2.723091,3.987047 -0.876704,2.539889 -1.608505,5.130796 -2.190594,7.753924 -0.10241,-0.244326 -0.204674,-0.487756 -0.306968,-0.732071 l 0.11724,-1.808724"
       style="fill:#93ad3f;fill-opacity:1;fill-rule:nonzero;stroke:none;stroke-width:0.00894962" /><path
       id="path260"
       d="m 54.585752,56.847944 c -0.947048,1.647615 -1.864018,3.477799 -2.575514,5.758157 -0.711402,2.280359 -1.207391,5.063678 -1.210346,7.87386 l 3.086541,0.226414 c 0.100328,-1.039934 0.08909,-2.108521 0.07296,-3.160101 -0.05589,-3.619206 -0.139252,-7.498858 0.626384,-10.69833"
       style="fill:#95693f;fill-opacity:1;fill-rule:nonzero;stroke:none;stroke-width:0.00894962" /><path
       id="path261"
       d="m 48.371425,60.221929 c 1.22296,1.87226 2.420151,3.96288 3.397797,6.61107 0.977562,2.647283 1.726473,5.913884 1.888819,9.259249 l -3.669432,0.562034 c -0.178446,-1.228789 -0.225436,-2.501413 -0.265442,-3.754357 -0.137733,-4.314601 -0.257564,-8.94153 -1.351742,-12.677996"
       style="fill:#66442d;fill-opacity:1;fill-rule:nonzero;stroke:none;stroke-width:0.00894962" /><path
       id="path262"
       d="m 55.71134,65.349155 c -1.312902,1.537536 -2.591708,3.260335 -3.612233,5.45835 -1.020608,2.198024 -1.771215,4.923177 -1.867421,7.732453 l 4.095066,0.58441 c 0.167445,-1.028309 0.187667,-2.09779 0.200562,-3.151151 0.04454,-3.624586 0.0613,-7.514084 1.184026,-10.624062"
       style="fill:#7f5737;fill-opacity:1;fill-rule:nonzero;stroke:none;stroke-width:0.00894962" /><path
       id="path263"
       d="m 48.288821,68.274776 c 1.290889,1.820348 2.559934,3.860856 3.615812,6.466978 1.055785,2.606123 1.890329,5.840502 2.125974,9.178696 l -3.744865,0.716866 c -0.208076,-1.220733 -0.282719,-2.491568 -0.349753,-3.743617 -0.230629,-4.30744 -0.449353,-8.92901 -1.647168,-12.618923"
       style="fill:#95693f;fill-opacity:1;fill-rule:nonzero;stroke:none;stroke-width:0.00894962" /><path
       id="path264"
       d="m 55.493418,72.686031 c -1.326775,1.698633 -2.599763,3.578044 -3.544938,5.895994 -0.94507,2.31794 -1.544967,5.12632 -1.410357,7.933806 l 4.60089,0.05454 c 0.09762,-1.044421 0.0282,-2.111217 -0.04787,-3.160997 -0.262226,-3.61295 -0.577968,-7.484547 0.40228,-10.723402"
       style="fill:#66442d;fill-opacity:1;fill-rule:nonzero;stroke:none;stroke-width:0.00894962" /><path
       id="path265"
       d="m 48.395591,76.818949 c 1.667837,2.122841 3.258004,4.456007 4.401493,7.288543 1.143405,2.831663 1.393361,4.208102 1.104023,7.54361 0,0 -4.38458,-0.733861 -4.24255,-1.97875 0.488641,-4.285959 -0.110714,-8.920954 -1.262966,-12.853403"
       style="fill:#7f5737;fill-opacity:1;fill-rule:nonzero;stroke:none;stroke-width:0.00894962" /><path
       id="path266"
       d="m 56.429007,77.907215 c -1.224303,1.648522 -2.409588,3.477821 -3.329337,5.758168 -0.919749,2.281254 -1.560901,5.064574 -1.564741,7.874745 l 3.990086,0.22554 c 0.129677,-1.039945 0.115179,-2.107636 0.09419,-3.159206 -0.07233,-3.619216 -0.180059,-7.499764 0.809764,-10.699247"
       style="fill:#95693f;fill-opacity:1;fill-rule:nonzero;stroke:none;stroke-width:0.00894962" /><path
       id="path267"
       d="m 48.395591,81.281211 c 1.580945,1.872261 3.128598,3.963776 4.392365,6.61107 1.263768,2.648179 2.231943,5.91479 2.441716,9.259249 l -4.743461,0.562034 c -0.23063,-1.227883 -0.712204,-4.29133 -0.764023,-5.545169 -0.178102,-4.313706 0.08784,-7.150728 -1.326597,-10.887184"
       style="fill:#66442d;fill-opacity:1;fill-rule:nonzero;stroke:none;stroke-width:0.00894962" /><path
       id="path268"
       d="m 57.883762,86.408437 c -1.696926,1.538431 -3.350099,3.26123 -4.66936,5.45836 -1.31926,2.198015 -2.289662,4.923167 -2.413969,7.732443 l 5.293683,0.58441 c 0.216485,-1.028309 0.242712,-2.09779 0.259447,-3.15115 0.05755,-3.624587 0.0791,-7.514074 1.530199,-10.624063"
       style="fill:#7f5737;fill-opacity:1;fill-rule:nonzero;stroke:none;stroke-width:0.00894962" /><path
       id="path269"
       d="m 48.288821,89.334058 c 1.668743,1.820348 3.309375,3.860856 4.674189,6.466979 1.364907,2.606111 2.443776,5.840503 2.74833,9.178703 l -4.841011,0.71686 c -0.269116,-1.22072 -0.365499,-2.49157 -0.452131,-3.74272 -0.298205,-4.308329 -0.581007,-8.929908 -2.129377,-12.619822"
       style="fill:#95693f;fill-opacity:1;fill-rule:nonzero;stroke:none;stroke-width:0.00894962" /><path
       id="path270"
       d="m 57.602386,93.745313 c -1.715181,1.698633 -3.360746,3.578044 -4.582541,5.895994 -1.221805,2.317943 -1.997286,5.126323 -1.823304,7.933813 l 5.947625,0.0545 c 0.126285,-1.04442 0.03653,-2.1112 -0.06192,-3.16099 -0.338836,-3.61206 -0.747121,-7.484545 0.520144,-10.72341"
       style="fill:#66442d;fill-opacity:1;fill-rule:nonzero;stroke:none;stroke-width:0.00894962" /><path
       id="path271"
       d="m 49.539527,99.972441 c 2.156135,2.122839 4.211765,4.455999 5.689968,7.287649 1.47811,2.83255 2.346581,6.22355 1.972578,9.55906 l -7.786499,-0.27565 c -0.110891,-1.25204 0.06224,-2.51751 0.245752,-3.7624 0.631753,-4.28596 1.367852,-8.87621 -0.121799,-12.808659"
       style="fill:#7f5737;fill-opacity:1;fill-rule:nonzero;stroke:none;stroke-width:0.00894962" /><path
       id="path272"
       d="m 58.598838,102.83541 c -2.246794,1.69865 -4.402398,3.57806 -6.002941,5.896 -1.600449,2.31794 -2.616228,5.12633 -2.388284,7.93378 l 7.790704,0.0545 c 0.165573,-1.04441 0.04829,-2.1112 -0.08055,-3.16099 -0.444076,-3.61294 -0.978905,-7.48453 0.681065,-10.72339"
       style="fill:#95693f;fill-opacity:1;fill-rule:nonzero;stroke:none;stroke-width:0.00894962" /><path
       id="path274"
       d="m 56.902089,52.12434 c -0.02675,0 -0.05235,-0.0021 -0.07701,-0.0062 1.706594,-2.002021 5.011682,-3.415165 7.40749,-4.388881 2.708147,-1.101693 5.57738,-1.809604 8.488681,-2.07272 0.424218,-0.03849 0.856482,-0.06534 1.28785,-0.06534 0.997878,0 1.986806,0.146773 2.839708,0.643475 -0.267597,0.375885 -0.707916,0.482382 -1.184931,0.482382 -0.34992,0 -0.719541,-0.05727 -1.054256,-0.106497 -0.434064,-0.06354 -0.869012,-0.09129 -1.303961,-0.09129 -1.73532,0 -3.47244,0.449273 -5.164807,0.895856 -2.026188,0.534289 -4.05685,1.082008 -6.006074,1.855249 -0.961182,0.381254 -1.903577,0.815305 -2.800326,1.331692 -0.579935,0.33383 -1.800387,1.522331 -2.432401,1.522331"
       style="fill:#a7bc63;fill-opacity:1;fill-rule:nonzero;stroke:none;stroke-width:0.00894962" /><path
       id="path276"
       d="m 67.724736,33.946828 c -0.285497,0 -0.538763,-0.08949 -0.626477,-0.349033 -0.127085,-0.374986 0.249696,-0.716862 0.585305,-0.926283 1.977866,-1.235938 4.16335,-2.137162 6.434758,-2.665189 0.933445,-0.216579 2.09421,-0.545925 3.077767,-0.545925 0.05995,0 0.119926,9.01e-4 0.178988,0.0036 0.803675,0.03491 1.778292,0.766085 0.536078,1.180451 -3.188732,1.064108 -6.37658,2.128214 -9.565322,3.191424 -0.188833,0.06354 -0.413468,0.110975 -0.621097,0.110975"
       style="fill:#839f67;fill-opacity:1;fill-rule:nonzero;stroke:none;stroke-width:0.00894962" /><path
       style="fill:none;stroke-width:0.0671217"
       d="m 16.411886,8.3368703 c -1.597556,8.0502977 9.471541,19.0371177 14.723521,24.5392017 3.242247,3.396639 6.253751,6.664745 9.815684,9.815676 6.386893,5.649958 13.605707,10.355869 20.683042,15.074082 2.366074,1.577386 7.256135,4.858235 9.114565,5.959521 1.123933,0.666046 2.374951,1.098216 3.505597,1.752804 1.093856,0.633294 2.066849,1.460344 3.155033,2.103359 1.485374,0.877723 3.07783,1.56625 4.557282,2.453923 7.145637,4.287375 9.921182,6.732068 11.919038,14.723521 0.332254,1.328991 0.350566,2.488924 0.350566,3.856163 0,0.232086 0.55103,0.600875 0.350557,0.701109 -0.739047,0.369527 -1.6296,-0.293709 -2.453918,-0.350555 -2.800266,-0.193121 -5.606744,-0.315908 -8.413439,-0.350554 -6.660141,-0.08222 -13.322697,-0.137306 -19.981922,0 -4.678987,0.09648 -9.350512,0.426289 -14.022401,0.701109 -14.653708,0.861988 -28.175364,1.621139 -42.4177584,4.907847 -0.5167201,0.119238 -8.8116864,3.505587 -9.1145644,3.505587"
       id="path288" /><path
       id="path255-6"
       d="m 139.57563,40.856063 c -0.49849,-3.942297 -0.42484,-8.009884 0.74371,-11.808091 0.80735,0.972821 1.61469,1.944746 2.42194,2.916674 0.0885,-1.276213 -1.02303,-2.344794 -1.17069,-3.616532 -0.11599,-0.997878 0.37641,-1.95817 0.88224,-2.826279 1.0796,-1.854357 2.29146,-3.631746 3.62342,-5.314269 0.68143,0.787566 1.36294,1.575128 2.04436,2.362691 -0.0431,-1.133912 -0.25542,-2.260665 -0.62781,-3.332826 4.56357,-4.634993 10.81817,-7.12119 16.87794,-9.4820923 -1.45073,2.7698983 -0.62647,6.2548693 -1.82572,9.1429023 -0.92448,-0.34277 -1.92236,-0.488648 -2.90593,-0.424211 0.63006,0.851107 1.67089,1.381816 2.72963,1.392558 -1.43909,1.987702 -2.87819,3.975408 -4.31729,5.963112 -0.1763,0.244324 -0.36424,0.497598 -0.63452,0.630052 -0.30786,0.15035 -0.66853,0.119028 -1.00862,0.08502 -1.5089,-0.153037 -3.01789,-0.306076 -4.52697,-0.45822 1.6989,0.822467 3.58816,1.250259 5.47653,1.238624 -0.53341,0.814413 -1.0668,1.62972 -1.60019,2.444133 -0.12977,0.197787 -0.26402,0.400048 -0.45464,0.539661 -0.31592,0.230005 -0.73387,0.250588 -1.12407,0.262223 -1.59974,0.04833 -3.19912,0.09665 -4.79859,0.144983 1.10026,0.402733 2.24133,0.69449 3.40013,0.869006 -1.27872,0.328452 -2.55744,0.657794 -3.83607,0.986246 1.2244,0.652426 2.62483,0.970132 4.01094,0.911069 -0.60024,4.593825 -2.77142,8.814446 -4.08764,13.257026 -0.71865,2.42534 -1.18009,4.91691 -1.54076,7.41832 -0.14875,1.03189 0.0872,4.55535 -1.31792,4.59919 -1.15449,0.0366 -2.43026,-2.3618 -2.82072,-3.19052 -0.95583,-2.02708 -1.38138,-4.41036 -1.94475,-6.5708 -0.69915,-2.68129 -1.31998,-5.38855 -1.66794,-8.13965"
       style="fill:#523e6e;fill-opacity:1;fill-rule:nonzero;stroke:none;stroke-width:0.00894962" /><path
       id="path256-5"
       d="m 141.50722,45.599343 c -1.14832,-5.42971 -1.55616,-11.089433 -3.77118,-16.179068 -2.82225,-6.484873 -8.35641,-11.51365 -11.07655,-18.041481 0.27985,2.161325 -0.48668,4.301173 -1.09516,6.394483 -0.60839,2.092415 -1.05417,4.403199 -0.17953,6.399852 2.00435,0.429582 4.17633,0.01165 5.87836,-1.130332 -1.48483,1.55723 -3.5707,2.52647 -5.71852,2.657132 1.80881,2.906828 3.41929,5.936265 4.81649,9.061461 1.01408,-0.35351 2.02807,-0.70791 3.04215,-1.061421 -0.6254,0.831421 -1.41162,1.54291 -2.30246,2.081678 0.84904,1.477573 1.69801,2.955153 2.54696,4.432736 0.0865,0.15124 0.18732,0.31323 0.3527,0.36514 0.16647,0.0528 0.34322,-0.0233 0.50082,-0.0984 0.55569,-0.26401 1.11136,-0.52713 1.66704,-0.79115 -0.1227,0.55488 -0.70218,0.85648 -1.11592,1.24668 -0.41383,0.38931 -0.61099,1.20014 -0.0946,1.4382 1.14179,-0.75893 2.28367,-1.51695 3.42554,-2.27499 -0.40381,1.50532 -1.35783,2.85582 -2.64111,3.74004 -0.3791,0.26043 -0.81442,0.51728 -0.96209,0.95313 -0.14659,0.43316 0.0399,0.90122 0.22938,1.31648 2.03639,4.46317 4.7866,8.55313 7.71123,12.47484 0.66676,0.89407 2.32788,4.12844 2.76463,1.67715 0.35529,-1.99396 -1.10769,-4.49896 -1.7032,-6.34795 -0.88118,-2.73588 -1.68011,-5.50041 -2.27499,-8.31416"
       style="fill:#714890;fill-opacity:1;fill-rule:nonzero;stroke:none;stroke-width:0.00894962" /><path
       id="path257-5"
       d="m 146.59247,41.256113 c 0.23314,1.0462 0.81351,2.01276 1.62802,2.70994 -0.71901,-0.99788 -0.60348,-2.41282 -0.0381,-3.50556 0.56544,-1.09185 1.50595,-1.934903 2.42588,-2.751105 2.73607,-2.428921 5.53067,-4.895429 8.87602,-6.375687 0.39468,1.000564 0.78935,2.001128 1.18404,3.000797 -0.44748,-1.663729 -0.27118,-4.038057 -0.27118,-4.038057 0,0 5.69553,-1.279792 7.41564,-1.373763 4.23136,-0.230004 8.47615,-0.194205 12.70305,0.107396 -1.38809,2.269616 -2.77707,4.53834 -4.16514,6.807057 -1.38003,-0.554875 -2.76096,-1.108855 -4.14188,-1.66373 0.41885,1.028312 2.44951,1.602872 2.86835,2.631185 -2.92204,2.628487 -7.56867,5.572907 -12.55986,1.4203 0.76609,1.335277 1.92595,2.440547 3.29613,3.141307 -3.28271,0.78488 -6.28798,2.68846 -8.39918,5.32232 -1.33797,-0.70702 -2.78601,-1.20551 -4.27576,-1.47131 0.94471,0.78487 1.88979,1.57065 2.83488,2.35553 -1.10708,-0.92002 -8.75522,19.23446 -9.3969,20.45339 -2.08338,-1.95547 -1.80074,-12.44351 -1.78124,-15.18476 0.0279,-3.92172 0.62638,-7.84164 1.79725,-11.58525"
       style="fill:#784f9f;fill-opacity:1;fill-rule:nonzero;stroke:none;stroke-width:0.00894962" /><path
       id="path258-8"
       d="m 142.64964,55.733863 c -1.29582,-2.16042 -2.70045,-4.26269 -4.32158,-6.19043 -6.0749,-7.2259 -15.03684,-11.707857 -24.33851,-13.318781 -2.5363,-0.439427 -5.19935,-0.711495 -7.38001,-2.078994 3.04215,2.685776 5.40287,6.137625 6.80276,9.946575 1.72074,-0.95492 3.2667,-2.22307 4.53915,-3.72392 -0.6578,1.53664 -1.6239,2.94173 -2.82432,4.10607 0.66022,2.08794 2.48558,3.59237 4.38253,4.68511 1.89704,1.09364 3.96825,1.91342 5.68255,3.27555 0.10864,0.086 0.22758,0.179 0.3663,0.179 0.17497,10e-4 0.31172,-0.1441 0.4243,-0.27834 1.86447,-2.21771 3.46519,-4.65737 4.7577,-7.25096 -0.71114,2.90683 -1.94117,5.68568 -3.61493,8.1665 2.27168,-0.26491 4.02097,1.81588 5.87514,3.15384 0.42216,0.30519 0.89943,0.58709 1.42012,0.58351 0.5206,-0.003 1.06921,-0.40004 1.05732,-0.92091 0.34956,0.62915 -0.32738,1.4382 -0.0664,2.10852 0.13898,0.35709 0.50636,0.56651 0.85952,0.71418 1.41483,0.59515 2.99166,0.67748 4.45376,1.14465 2.51734,0.80457 4.32811,2.69294 5.46399,5.01983 -0.0927,-3.30866 -1.87815,-6.5511 -3.53938,-9.321"
       style="fill:#9972b6;fill-opacity:1;fill-rule:nonzero;stroke:none;stroke-width:0.00894962" /><path
       id="path259-1"
       d="m 146.38672,65.485333 c 0.81441,-5.01535 1.79117,-10.3672 5.32697,-14.01684 1.29617,-1.33797 2.87604,-2.37075 4.51919,-3.24781 8.10296,-4.32265 17.95019,-4.91243 26.76644,-2.33763 4.90616,1.43283 9.6405,3.88681 12.98227,7.75393 2.06557,2.39042 3.59326,5.30084 6.11883,7.19905 -1.28963,-0.62827 -2.80927,-0.58173 -4.30564,-0.5343 -1.83198,0.0572 -3.62995,0.11546 -4.92854,-1.06858 -0.29175,-0.26581 -0.54503,-0.6041 -0.58888,-0.99698 -0.0349,-0.31144 0.0662,-0.62111 0.15751,-0.92181 0.5155,-1.69595 0.76609,-3.47244 0.73834,-5.24446 -1.08021,2.12911 -2.00918,4.33518 -2.77885,6.59585 -0.67569,-0.84394 -1.92595,-0.84305 -3.00437,-0.91734 -1.75323,-0.12082 -3.47871,-0.63989 -5.00641,-1.508 -0.21747,-0.12261 -0.43674,-0.25864 -0.57992,-0.46269 -0.21928,-0.31055 -0.22375,-0.71866 -0.22553,-1.09902 -0.0107,-2.13179 -0.20048,-4.26179 -0.56562,-6.36226 -0.0268,2.63029 -0.0528,5.25967 -0.0788,7.88996 -2.50051,-0.0778 -5.00102,-0.15573 -7.50154,-0.23269 -0.0296,-1.06232 -0.0599,-2.12463 -0.0895,-3.18695 -0.3911,0.96298 -0.53788,2.0235 -0.42422,3.05629 -0.38393,0.0886 -0.76787,0.17631 -1.1527,0.26491 -0.0188,-2.8424 -1.04621,-5.66778 -2.8585,-7.85864 1.06321,2.69113 1.72459,5.54069 1.95549,8.42515 -1.03995,-0.1074 -2.10585,-0.0268 -3.16637,0.0537 -1.73175,0.13245 -3.44828,0.26401 -5.01177,-0.42063 -2.17564,-0.95224 -3.41964,-3.21558 -4.50612,-5.3277 0.32934,1.57871 0.90659,3.10462 1.704,4.50523 -1.2252,0.88243 -2.77437,0.69896 -4.34055,0.5146 -1.41225,-0.16557 -2.83791,-0.33114 -4.05184,0.28549 -1.47328,0.7473 -2.18397,2.42535 -2.72309,3.98705 -0.87671,2.53989 -1.60851,5.1308 -2.1906,7.75392 -0.10241,-0.24432 -0.20467,-0.48775 -0.30696,-0.73207 l 0.11724,-1.80872"
       style="fill:#9e6bb7;fill-opacity:1;fill-rule:nonzero;stroke:none;stroke-width:0.00894962" /><path
       id="path260-4"
       d="m 150.15691,57.157753 c -0.94704,1.64761 -1.86401,3.4778 -2.57551,5.75815 -0.7114,2.28036 -1.20739,5.06368 -1.21035,7.87386 l 3.08654,0.22642 c 0.10033,-1.03994 0.0891,-2.10852 0.073,-3.1601 -0.0559,-3.61921 -0.13925,-7.49886 0.62639,-10.69833"
       style="fill:#95693f;fill-opacity:1;fill-rule:nonzero;stroke:none;stroke-width:0.00894962" /><path
       id="path261-7"
       d="m 143.94259,60.531733 c 1.22296,1.87226 2.42015,3.96288 3.39779,6.61107 0.97757,2.64728 1.72648,5.91389 1.88882,9.25925 l -3.66943,0.56203 c -0.17845,-1.22878 -0.22544,-2.50141 -0.26544,-3.75435 -0.13773,-4.3146 -0.25757,-8.94153 -1.35174,-12.678"
       style="fill:#66442d;fill-opacity:1;fill-rule:nonzero;stroke:none;stroke-width:0.00894962" /><path
       id="path262-1"
       d="m 151.2825,65.658963 c -1.3129,1.53753 -2.59171,3.26033 -3.61223,5.45835 -1.02061,2.19802 -1.77122,4.92317 -1.86742,7.73245 l 4.09506,0.58441 c 0.16745,-1.02831 0.18767,-2.09779 0.20057,-3.15115 0.0445,-3.62459 0.0613,-7.51408 1.18402,-10.62406"
       style="fill:#7f5737;fill-opacity:1;fill-rule:nonzero;stroke:none;stroke-width:0.00894962" /><path
       id="path263-3"
       d="m 143.85998,68.584583 c 1.29089,1.82035 2.55994,3.86085 3.61581,6.46698 1.05579,2.60612 1.89033,5.8405 2.12598,9.17869 l -3.74487,0.71687 c -0.20807,-1.22073 -0.28272,-2.49157 -0.34975,-3.74362 -0.23063,-4.30744 -0.44935,-8.92901 -1.64717,-12.61892"
       style="fill:#95693f;fill-opacity:1;fill-rule:nonzero;stroke:none;stroke-width:0.00894962" /><path
       id="path264-8"
       d="m 151.06458,72.995833 c -1.32678,1.69864 -2.59976,3.57805 -3.54494,5.896 -0.94507,2.31794 -1.54497,5.12632 -1.41036,7.9338 l 4.60089,0.0545 c 0.0976,-1.04442 0.0282,-2.11121 -0.0479,-3.16099 -0.26222,-3.61295 -0.57796,-7.48455 0.40228,-10.72341"
       style="fill:#66442d;fill-opacity:1;fill-rule:nonzero;stroke:none;stroke-width:0.00894962" /><path
       id="path265-4"
       d="m 143.96675,77.128753 c 1.66784,2.12284 3.25801,4.45601 4.4015,7.28854 1.1434,2.83167 1.39336,4.20811 1.10402,7.54361 0,0 -4.38458,-0.73386 -4.24255,-1.97875 0.48864,-4.28595 -0.11072,-8.92095 -1.26297,-12.8534"
       style="fill:#7f5737;fill-opacity:1;fill-rule:nonzero;stroke:none;stroke-width:0.00894962" /><path
       id="path266-8"
       d="m 152.00017,78.217023 c -1.2243,1.64852 -2.40959,3.47782 -3.32934,5.75817 -0.91975,2.28125 -1.5609,5.06457 -1.56474,7.87474 l 3.99009,0.22554 c 0.12967,-1.03994 0.11518,-2.10764 0.0942,-3.15921 -0.0723,-3.61921 -0.18006,-7.49976 0.80976,-10.69924"
       style="fill:#95693f;fill-opacity:1;fill-rule:nonzero;stroke:none;stroke-width:0.00894962" /><path
       id="path267-0"
       d="m 143.96675,81.591013 c 1.58095,1.87226 3.1286,3.96378 4.39237,6.61107 1.26377,2.64818 2.23194,5.91479 2.44171,9.25925 l -4.74346,0.56204 c -0.23063,-1.22789 -0.7122,-4.29133 -0.76402,-5.54517 -0.1781,-4.31371 0.0878,-7.15073 -1.3266,-10.88719"
       style="fill:#66442d;fill-opacity:1;fill-rule:nonzero;stroke:none;stroke-width:0.00894962" /><path
       id="path268-4"
       d="m 153.45492,86.718243 c -1.69692,1.53843 -3.3501,3.26123 -4.66936,5.45836 -1.31926,2.19801 -2.28966,4.92317 -2.41397,7.73244 l 5.29369,0.584407 c 0.21648,-1.028307 0.24271,-2.097787 0.25944,-3.151147 0.0576,-3.62458 0.0791,-7.51407 1.5302,-10.62406"
       style="fill:#7f5737;fill-opacity:1;fill-rule:nonzero;stroke:none;stroke-width:0.00894962" /><path
       id="path269-6"
       d="m 143.85998,89.643863 c 1.66875,1.82035 3.30938,3.86086 4.67419,6.46698 1.36491,2.60611 2.44378,5.840497 2.74833,9.178697 l -4.84101,0.71686 c -0.26912,-1.22072 -0.3655,-2.49157 -0.45213,-3.74272 -0.29821,-4.308327 -0.58101,-8.929907 -2.12938,-12.619817"
       style="fill:#95693f;fill-opacity:1;fill-rule:nonzero;stroke:none;stroke-width:0.00894962" /><path
       id="path270-0"
       d="m 153.17355,94.055123 c -1.71518,1.69863 -3.36075,3.57804 -4.58254,5.89599 -1.22181,2.317937 -1.99729,5.126317 -1.82331,7.933807 l 5.94763,0.0545 c 0.12628,-1.04442 0.0365,-2.1112 -0.0619,-3.16099 -0.33884,-3.61206 -0.74712,-7.484537 0.52014,-10.723407"
       style="fill:#66442d;fill-opacity:1;fill-rule:nonzero;stroke:none;stroke-width:0.00894962" /><path
       id="path271-3"
       d="m 145.11069,100.28224 c 2.15613,2.12284 4.21176,4.456 5.68997,7.28765 1.47811,2.83255 2.34658,6.22355 1.97257,9.55906 l -7.78649,-0.27565 c -0.1109,-1.25204 0.0622,-2.51751 0.24575,-3.7624 0.63175,-4.28596 1.36785,-8.87621 -0.1218,-12.80866"
       style="fill:#7f5737;fill-opacity:1;fill-rule:nonzero;stroke:none;stroke-width:0.00894962" /><path
       id="path272-2"
       d="m 154.17,103.14521 c -2.24679,1.69865 -4.4024,3.57806 -6.00294,5.896 -1.60045,2.31794 -2.61623,5.12633 -2.38829,7.93378 l 7.79071,0.0545 c 0.16557,-1.04441 0.0483,-2.1112 -0.0806,-3.16099 -0.44408,-3.61294 -0.97891,-7.48453 0.68106,-10.72339"
       style="fill:#95693f;fill-opacity:1;fill-rule:nonzero;stroke:none;stroke-width:0.00894962" /><path
       id="path274-6"
       d="m 152.47325,52.434143 c -0.0267,0 -0.0523,-0.002 -0.077,-0.006 1.70659,-2.00202 5.01168,-3.41516 7.40749,-4.38888 2.70815,-1.10169 5.57738,-1.8096 8.48868,-2.07272 0.42422,-0.0385 0.85648,-0.0653 1.28785,-0.0653 0.99788,0 1.98681,0.14678 2.83971,0.64348 -0.2676,0.37588 -0.70792,0.48238 -1.18493,0.48238 -0.34992,0 -0.71954,-0.0573 -1.05426,-0.1065 -0.43406,-0.0635 -0.86901,-0.0913 -1.30396,-0.0913 -1.73532,0 -3.47244,0.44928 -5.1648,0.89586 -2.02619,0.53429 -4.05685,1.08201 -6.00608,1.85525 -0.96118,0.38125 -1.90358,0.8153 -2.80032,1.33169 -0.57994,0.33383 -1.80039,1.52233 -2.43241,1.52233"
       style="fill:#caa7da;fill-opacity:1;fill-rule:nonzero;stroke:none;stroke-width:0.00894962" /><path
       id="path276-9"
       d="m 163.2959,34.256634 c -0.2855,0 -0.53877,-0.08949 -0.62648,-0.349033 -0.12708,-0.374986 0.2497,-0.716862 0.58531,-0.926283 1.97786,-1.235938 4.16335,-2.137162 6.43475,-2.665189 0.93345,-0.216579 2.09421,-0.545925 3.07777,-0.545925 0.06,0 0.11993,9.01e-4 0.17899,0.0036 0.80367,0.03491 1.77829,0.766085 0.53608,1.180451 -3.18873,1.064108 -6.37658,2.128214 -9.56533,3.191424 -0.18883,0.06354 -0.41346,0.110975 -0.62109,0.110975"
       style="fill:#b5a3c5;fill-opacity:1;fill-rule:nonzero;stroke:none;stroke-width:0.00894962" /><path
       style="fill:none;stroke-width:0.0671217"
       d="m 111.98305,8.6466757 c -1.59756,8.0502983 9.47154,19.0371183 14.72352,24.5392023 3.24225,3.396639 6.25375,6.664745 9.81568,9.815675 6.3869,5.64996 13.60571,10.35587 20.68304,15.07408 2.36608,1.57739 7.25614,4.85824 9.11457,5.95952 1.12393,0.66605 2.37495,1.09822 3.5056,1.75281 1.09385,0.63329 2.06685,1.46034 3.15503,2.10336 1.48537,0.87772 3.07783,1.56625 4.55728,2.45392 7.14564,4.28738 9.92118,6.73207 11.91904,14.72352 0.33225,1.32899 0.35057,2.48893 0.35057,3.85616 0,0.23209 0.55103,0.60088 0.35055,0.70111 -0.73904,0.36953 -1.6296,-0.29371 -2.45392,-0.35055 -2.80026,-0.19312 -5.60674,-0.31591 -8.41343,-0.35056 -6.66015,-0.0822 -13.3227,-0.1373 -19.98193,0 -4.67898,0.0965 -9.35051,0.42629 -14.0224,0.70111 -14.6537,0.86199 -28.17536,1.62114 -42.41775,4.90785 -0.51672,0.11924 -8.811689,3.50559 -9.114567,3.50559"
       id="path288-4" /></g></svg>
